<svg width="346.99999999999994" height="348" xmlns="http://www.w3.org/2000/svg" preserveAspectRatio="xMidYMid meet">
 <metadata>Created by potrace 1.16, written by Peter Selinger 2001-2019</metadata>

 <g>
  <title>background</title>
  <rect fill="none" id="canvas_background" height="350" width="349" y="-1" x="-1"/>
 </g>
 <g>
  <title>Layer 1</title>
  <g id="svg_1" fill="#000000" transform="translate(0,361) scale(0.10000000149011612,-0.10000000149011612) ">
   <path stroke="null" id="svg_2" d="m1499.05087,3638.48563c-251,-34 -583,-165 -792,-312c-132,-92 -372,-337 -459,-467c-108,-162 -195,-354 -252,-555c-44,-152 -47,-183 -47,-460c0,-303 6,-344 76,-559c153,-469 495,-860 933,-1071c290,-139 535,-185 901,-170c187,8 264,21 440,80c347,114 625,304 844,576c175,216 282,430 359,718l36,136l1,280c0,310 -3,335 -72,550c-133,414 -386,746 -745,979c-178,116 -418,214 -623,255c-118,23 -486,36 -600,20zm573,-238c259,-55 521,-188 727,-369c257,-226 457,-582 510,-907c23,-136 23,-426 1,-560c-21,-126 -70,-272 -142,-425l-57,-119l-56,48c-120,104 -324,214 -593,321l-156,62l-87,-71c-95,-76 -208,-140 -294,-165c-75,-22 -287,-22 -362,0c-86,25 -199,89 -293,165l-86,69l-122,-46c-151,-56 -387,-169 -488,-232c-41,-25 -103,-70 -136,-98l-62,-52l-50,106c-62,130 -113,282 -143,422c-33,152 -33,448 0,600c46,214 124,403 236,570c241,359 587,592 1020,686c102,22 126,24 325,20c164,-4 237,-9 308,-25z"/>
   <path stroke="null" id="svg_3" d="m1649.05087,3012.48563c-100,-13 -230,-71 -331,-146c-115,-87 -218,-244 -261,-397c-27,-99 -24,-317 5,-428c83,-308 275,-555 505,-649c84,-35 218,-43 303,-18c192,55 388,250 494,493c64,145 84,236 84,392c1,144 -9,203 -51,305c-75,179 -232,337 -404,406c-97,38 -240,56 -344,42z"/>
  </g>
 </g>
</svg>